<?xml version="1.0" encoding="utf-8"?>
<!-- Generator: Adobe Illustrator 24.3.0, SVG Export Plug-In . SVG Version: 6.00 Build 0)  -->
<svg version="1.1" xmlns="http://www.w3.org/2000/svg" xmlns:xlink="http://www.w3.org/1999/xlink" x="0px" y="0px"
	 viewBox="0 0 731 170" style="enable-background:new 0 0 731 170;" xml:space="preserve">
<style type="text/css">
	.st0{fill:#0081C6;}
	.st1{fill:#008752;}
	.st2{fill:#54534A;}
	.st3{fill:#73B699;}
	.st4{fill:#007042;}
	.st5{fill:#00833E;}
	.st6{fill:#369673;}
	.st7{fill:#008753;}
	.st8{fill:#70B195;}
	.st9{fill:#77B3B9;}
	.st10{fill:#3F93C7;}
	.st11{fill:#3EA27E;}
	.st12{fill:#449FBF;}
	.st13{fill:#6FA4CD;}
	.st14{fill:#0075C9;}
	.st15{fill:#297BA3;}
	.st16{fill:#0081BF;}
	.st17{fill:#439ECD;}
	.st18{fill:#0067A0;}
	.st19{fill:#0083AD;}
	.st20{fill:#00865F;}
	.st21{fill:#6AA98E;}
	.st22{fill:#00824E;}
	.st23{fill:#3A9D79;}
	.st24{fill:#187771;}
	.st25{fill:#3B81A8;}
	.st26{fill:#6DA1CA;}
	.st27{fill:#44A0B2;}
	.st28{fill:#73A9D4;}
	.st29{fill:#0075B4;}
	.st30{display:none;}
	.st31{display:inline;}
	.st32{clip-path:url(#SVGID_2_);}
	.st33{clip-path:url(#SVGID_6_);}
	.st34{clip-path:url(#SVGID_10_);fill:#54534A;}
	.st35{clip-path:url(#SVGID_10_);fill:#0081C6;}
	.st36{clip-path:url(#SVGID_10_);fill:#008752;}
	.st37{clip-path:url(#SVGID_12_);fill:none;stroke:#3D3935;stroke-width:0.4;}
</style>
<g id="rgb">
	<g>
		<g>
			<path class="st0" d="M320.2,90.3v12.5h11.1c3,0,5.3-2.4,5.3-5.3V73.9c0-3-2.4-5.3-5.3-5.3h-23.6c-3,0-5.3,2.4-5.3,5.3v11.1h12.5
				C317.8,84.9,320.2,87.3,320.2,90.3z M280.1,90.3v12.5H269c-3,0-5.3-2.4-5.3-5.3V73.9c0-3,2.4-5.3,5.3-5.3h23.6
				c3,0,5.3,2.4,5.3,5.3v11.1h-12.5C282.5,84.9,280.1,87.3,280.1,90.3z"/>
			<path class="st1" d="M280.1,119.7v-12.5H269c-3,0-5.3,2.4-5.3,5.3v23.6c0,3,2.4,5.3,5.3,5.3h23.6c3,0,5.3-2.4,5.3-5.3v-11.1
				h-12.5C282.5,125.1,280.1,122.7,280.1,119.7z M320.2,119.7v-12.5h11.1c3,0,5.3,2.4,5.3,5.3v23.6c0,3-2.4,5.3-5.3,5.3h-23.6
				c-3,0-5.3-2.4-5.3-5.3v-11.1h12.5C317.8,125.1,320.2,122.7,320.2,119.7z"/>
			<polygon class="st2" points="463.9,123.6 463.9,123.6 463.9,123.4 			"/>
			<path class="st2" d="M384.6,112.4c-1.2,8.2-6.7,13.2-15.1,13.2c-11.4,0-16.5-10.6-16.5-20.7c0-10.1,5.1-20.7,16.5-20.7
				c8.2,0,13.8,4.7,15.1,13.2l-7.6,1c-0.8-4.2-2.6-7.9-7.5-7.9c-6.9,0-8.3,9.2-8.3,14.3c0,5.2,1.4,14.3,8.3,14.3
				c4.8,0,6.7-3.8,7.5-7.9L384.6,112.4z"/>
			<rect x="389.2" y="85" class="st2" width="7.6" height="40.1"/>
			<path class="st2" d="M419.3,107.6c0-3.2-1.3-6.4-4.9-6.4c-3.5,0-4.8,3.3-4.9,6.4H419.3z M409.2,112.4c-0.3,3.5,1.8,7.6,5.7,7.6
				c2.4,0,4-1.6,4.8-4.2l7.1,0.8c-1.6,5.7-7.2,9-12.6,9c-8.4,0-12.7-7.4-12.7-15c0-7.7,4.2-15,12.7-15c7.3,0,12.8,3.5,12.6,16.8
				H409.2z"/>
			<path class="st2" d="M473.5,107.6c0-3.2-1.3-6.4-4.9-6.4c-3.5,0-4.8,3.3-4.9,6.4H473.5z M463.4,112.4c-0.3,3.5,1.8,7.6,5.7,7.6
				c2.4,0,4-1.6,4.8-4.2l7.1,0.8c-1.6,5.7-7.2,9-12.6,9c-8.4,0-12.7-7.4-12.7-15c0-7.7,4.2-15,12.7-15c7.3,0,12.8,3.5,12.6,16.8
				H463.4z"/>
			<polygon class="st2" points="445.7,125 437.6,125 428.7,96.2 436.7,96.2 441.7,117.5 441.8,117.5 446.8,96.2 454.4,96.2 			"/>
			<rect x="486.1" y="85" class="st2" width="7.6" height="40.1"/>
			<path class="st2" d="M515.1,111.8c-3.1,0.6-9.4,0.9-9.4,5.1c0,1.7,0.8,3.1,2.6,3.1c3.1,0,5.3-1.9,6.7-3.8V111.8z M515.6,122.4
				c-2.8,2-4.6,3.3-8.2,3.3c-5,0-9.1-3.4-9.1-8.6c0-8.1,10.7-9.8,16.8-10.5c0.5-4-0.8-5.5-3.7-5.5c-2.4,0-4.2,1.1-4.6,3.6l-7.3-1.1
				c1.7-6.1,5.8-8.1,11.8-8.1c7.8,0,11.3,3.7,11.3,9.1V119c0,2.1,0.1,4.1,1,6h-7.3C515.8,123.7,515.6,122.4,515.6,122.4z"/>
			<path class="st2" d="M536.5,99.2c2.4-2,5.4-3.6,8.6-3.6c3.1,0,7.6,1.9,7.6,9V125h-7.6v-17.4c0-2.3,0.2-6-3.1-6
				c-2.2,0-4,1.6-5.4,3.1V125h-7.6V96.2h7.6V99.2z"/>
			<path class="st2" d="M631.4,112.4c-1.2,8.2-6.7,13.2-15.1,13.2c-11.4,0-16.5-10.6-16.5-20.7c0-10.1,5.1-20.7,16.5-20.7
				c8.2,0,13.8,4.7,15.1,13.2l-7.6,1c-0.8-4.2-2.6-7.9-7.5-7.9c-6.9,0-8.3,9.2-8.3,14.3c0,5.2,1.4,14.3,8.3,14.3
				c4.8,0,6.7-3.8,7.5-7.9L631.4,112.4z"/>
			<rect x="636" y="85" class="st2" width="7.6" height="40.1"/>
			<path class="st2" d="M657.6,125H650V96.2h7.6V125z M657.6,92H650v-7h7.6V92z"/>
			<path class="st2" d="M671.5,99.2c2.4-2,5.4-3.6,8.6-3.6c3.1,0,7.6,1.9,7.6,9V125H680v-17.4c0-2.3,0.2-6-3.1-6
				c-2.2,0-4,1.6-5.4,3.1V125h-7.6V96.2h7.6V99.2z"/>
			<path class="st2" d="M701.6,125h-7.6V96.2h7.6V125z M701.6,92h-7.6v-7h7.6V92z"/>
			<path class="st2" d="M731,115.7c-1.2,6-5.6,9.9-12.1,9.9c-8.4,0-12.7-7.4-12.7-15c0-7.7,4.2-15,12.7-15c6.4,0,10.8,3.9,12.1,9.9
				l-6.9,0.9c-0.5-2.3-1.3-5.3-5.1-5.3c-4.1,0-4.8,5.8-4.8,9.4c0,3.6,0.7,9.4,4.8,9.4c3.9,0,4.4-2.6,5.1-5.2L731,115.7z"/>
			<path class="st2" d="M575.7,115.9c-1.2,1.8-2.7,3.3-4.9,3.3c-4.6,0-5.3-5.6-5.3-9c0-3.2,0.9-8.6,5.1-8.6c2.2,0,3.8,1.5,5.1,3.1
				V115.9z M583.3,119.9V85h-7.6V99c-2.2-1.9-4-3.5-7.1-3.5c-4.2,0-10.6,3.7-10.6,14.3c0,12.2,5.4,15.8,11.2,15.8
				c3.2,0,4.9-1.1,7.2-3.2c0,0,0.2,1.4,0.8,2.5h7.1C583.5,123.4,583.3,121.7,583.3,119.9z"/>
		</g>
	</g>
</g>
<g id="Layer_1">
	<g>
		<g>
			<path class="st3" d="M158.4,105c-0.2,1.4-0.4,2.6-0.7,3.7c-1.1,4.7-2.8,8-5,10c-0.5,0.4-1,0.8-1.6,1.2l12.9-3.4L158.4,105z"/>
			<path class="st4" d="M161.1,133.9c2.8-2,5.3-4.7,7.4-8l-4.5-9.4L161.1,133.9z"/>
			<path class="st5" d="M164,116.5l4.5,9.4c0,0,0-0.1,0.1-0.1c1.4-2.2,2.6-4.7,3.6-7.6L164,116.5z"/>
			<path class="st6" d="M164,116.5l8.1,1.7c0.9-2.5,1.6-5.3,2.1-8.3L164,116.5z"/>
			<path class="st7" d="M159.3,94.6c-0.1,4-0.4,7.5-0.9,10.4l5.6,11.5l10.3-6.6c0.5-2.8,0.9-5.9,1.2-9.2L159.3,94.6z"/>
			<path class="st8" d="M175.8,79.8h-7.9L176,92c0-1.2,0-2.4,0-3.7C176,85.4,175.9,82.5,175.8,79.8z"/>
			<path class="st9" d="M167.9,79.8h7.9c-0.2-3.5-0.5-6.7-1-9.7L167.9,79.8z"/>
			<path class="st10" d="M155.5,63.5c0.9,1.5,1.6,3.4,2.1,5.7l10.2,10.6L154.1,52L155.5,63.5z"/>
			<path class="st11" d="M167.9,79.8l-8.5,6.4c0,0.6,0,1.2,0,1.8c0,2.3,0,4.5-0.1,6.6l16.2,6.1c0.2-2.7,0.4-5.6,0.4-8.6L167.9,79.8z
				"/>
			<path class="st12" d="M159.4,86.2l8.5-6.4l-10.2-10.6C158.7,73.6,159.3,79.2,159.4,86.2z"/>
			<path class="st13" d="M161.6,44.9c-2.8-2-5.9-3.4-9.4-4.2l1.9,11.3L161.6,44.9z"/>
			<path class="st14" d="M161.7,44.9C161.7,44.9,161.7,44.9,161.7,44.9l-7.6,7.1l16.7,4.4C168.4,51.4,165.4,47.6,161.7,44.9z"/>
			<path class="st15" d="M170.7,56.4L154.1,52l13.8,27.8l6.9-9.7c-0.6-4-1.5-7.4-2.6-10.3C171.7,58.6,171.3,57.5,170.7,56.4z"/>
			<path class="st16" d="M147.5,56.8c3.2,0.7,5.8,2.9,7.9,6.6c0,0.1,0.1,0.1,0.1,0.2L154.1,52L147.5,56.8z"/>
			<path class="st17" d="M145.2,56.6c0.8,0,1.6,0.1,2.3,0.2l6.5-4.8l-1.9-11.3c-0.3-0.1-0.6-0.1-0.9-0.2l-6.3,16
				C145.1,56.6,145.2,56.6,145.2,56.6z"/>
			<path class="st18" d="M145.1,56.6l6.3-16c-1.9-0.4-4-0.5-6.2-0.5c-4.3,0-8.2,0.7-11.6,2.1l8.9,14.8
				C143.3,56.7,144.2,56.6,145.1,56.6z"/>
			<path class="st17" d="M136.3,62c1.2-1.9,2.6-3.3,4.2-4.1L130.1,53L136.3,62z"/>
			<path class="st14" d="M140.4,57.8c0.6-0.4,1.3-0.6,2-0.8l-8.9-14.8c-0.9,0.4-1.8,0.9-2.7,1.4l-0.8,9.5L140.4,57.8z"/>
			<path class="st13" d="M130.1,53l0.8-9.5c-0.7,0.4-1.4,0.9-2.1,1.4c-1.4,1.1-2.8,2.4-4,3.8L130.1,53z"/>
			<path class="st18" d="M124.8,48.7c-1.8,2.2-3.4,4.8-4.8,7.9l10.1-3.6L124.8,48.7z"/>
			<path class="st15" d="M120,56.6c-0.5,1.1-1,2.3-1.5,3.5c-0.7,1.8-1.2,3.7-1.7,5.9L130.1,53L120,56.6z"/>
			<path class="st10" d="M132.3,74.2c0.7-4.7,1.8-8.4,3.4-11.1c0.2-0.4,0.4-0.7,0.6-1.1l-6.2-9L116.8,66c-0.4,1.9-0.8,4-1.1,6.2
				L132.3,74.2z"/>
			<path class="st12" d="M122.9,91.6l8.4-1.3c0-0.4,0-0.8,0-1.2c0-3.1,0.1-5.9,0.3-8.6L122.9,91.6z"/>
			<path class="st19" d="M122.9,91.6l8.7-11.1c0.2-2.3,0.4-4.4,0.7-6.3l-16.6-1.9c-0.2,1.4-0.4,2.9-0.5,4.5L122.9,91.6z"/>
			<path class="st6" d="M132.7,120.7l3.7-4.1c-0.4-0.6-0.9-1.3-1.3-2c-2.5-4.5-3.8-12.6-3.9-24.3l-8.4,1.3L132.7,120.7z"/>
			<path class="st11" d="M136.5,116.6l-3.7,4.1h8.4C139.4,119.8,137.8,118.5,136.5,116.6z"/>
			<path class="st12" d="M115.2,76.7c-0.3,3.8-0.5,8-0.5,12.6c0,2.7,0.1,5.3,0.2,7.8l8-5.5L115.2,76.7z"/>
			<path class="st9" d="M114.9,97.1c0.1,2.9,0.4,5.6,0.7,8.2l7.3-13.7L114.9,97.1z"/>
			<path class="st11" d="M122.9,91.6l-7.3,13.7c0.6,5,1.6,9.3,2.9,12.9c0.5,1.3,1,2.5,1.5,3.6l12.8-1.1L122.9,91.6z"/>
			<path class="st6" d="M137.9,137.6l-5.2-17l-2.1,13.8C132.8,135.9,135.3,137,137.9,137.6z"/>
			<path class="st5" d="M129.1,133.5c0.5,0.3,1,0.7,1.4,1l2.1-13.8l-12.8,1.1C122.3,126.8,125.4,130.8,129.1,133.5z"/>
			<path class="st4" d="M147.9,121.3c-0.9,0.2-1.7,0.3-2.7,0.3c-1.5,0-2.9-0.3-4.2-0.9h-8.4l5.2,17c1.3,0.3,2.6,0.6,4,0.7
				L147.9,121.3z"/>
			<path class="st20" d="M157.1,136.2l-8.7-15.1c-0.2,0-0.3,0.1-0.5,0.1l-6,17.1c1.2,0.1,2.4,0.2,3.7,0.2
				C149.8,138.6,153.7,137.8,157.1,136.2z"/>
			<path class="st6" d="M148.4,121.1l8.7,15.1c1.4-0.6,2.7-1.4,4-2.3l2.9-17.4l-12.9,3.4C150.3,120.4,149.3,120.9,148.4,121.1z"/>
		</g>
		<g>
			<polygon class="st13" points="29.9,80.6 18.4,75.6 18.4,73.6 26.4,56.1 			"/>
			<polygon class="st21" points="35.2,130.5 35.2,122.1 28.2,118.9 			"/>
			<polygon class="st22" points="28.2,118.9 35.2,122.1 35.2,115.6 26.4,102.8 			"/>
			<polygon class="st8" points="35.2,103.8 35.2,99.9 26.4,102.8 			"/>
			<polygon class="st23" points="35.2,115.6 35.2,103.8 26.4,102.8 			"/>
			<polygon class="st11" points="26.4,102.8 35.2,99.9 35.2,85.2 29.9,80.6 			"/>
			<polygon class="st24" points="35.2,85.2 35.2,65.9 29.9,80.6 			"/>
			<polygon class="st25" points="29.9,80.6 35.2,65.9 35.2,58.7 26.4,56.1 			"/>
			<polygon class="st14" points="35.2,58.7 35.2,51.3 30.8,41.4 26.9,41.4 26.4,56.1 			"/>
			<polygon class="st17" points="35.2,41.4 30.8,41.4 35.2,51.3 			"/>
			<polygon class="st26" points="26.9,41.4 14.2,41.4 26.4,56.1 			"/>
			<polygon class="st4" points="24.3,137.2 35.2,137.2 35.2,130.5 28.2,118.9 			"/>
			<polygon class="st6" points="18.4,137.2 23.4,137.2 18.4,126.7 			"/>
			<polygon class="st5" points="18.4,126.1 18.4,126.7 23.4,137.2 24.3,137.2 28.2,118.9 			"/>
			<polygon class="st3" points="18.4,112.2 18.4,126.1 28.2,118.9 			"/>
			<polygon class="st6" points="29.9,80.6 18.4,97.7 18.4,104.3 26.4,102.8 			"/>
			<polygon class="st11" points="26.4,102.8 18.4,104.3 18.4,112.2 28.2,118.9 			"/>
			<polygon class="st27" points="18.4,75.6 18.4,97.2 18.4,97.7 29.9,80.6 			"/>
			<polygon class="st17" points="26.4,56.1 18.4,63.2 18.4,66.6 18.4,73.6 			"/>
			<polygon class="st13" points="6.5,58.5 3.5,52.4 0,58.5 			"/>
			<polygon class="st14" points="3.5,52.4 6.5,58.5 9.2,58.5 12.1,41.4 9.8,41.4 			"/>
			<polygon class="st18" points="18.4,58.5 18.4,63.2 26.4,56.1 14.2,41.4 12.1,41.4 9.2,58.5 			"/>
		</g>
		<g>
			<path class="st14" d="M62.1,73.6c0.2-1.4,0.4-2.6,0.7-3.7c1.1-4.7,2.8-8,5-10c0.5-0.4,1-0.8,1.6-1.2l-12.9,3.4L62.1,73.6z"/>
			<path class="st14" d="M59.4,44.7c-2.8,2-5.3,4.7-7.4,8l4.5,9.4L59.4,44.7z"/>
			<path class="st13" d="M56.5,62.1L52,52.7c0,0,0,0.1-0.1,0.1c-1.4,2.2-2.6,4.7-3.6,7.6L56.5,62.1z"/>
			<path class="st17" d="M56.5,62.1l-8.1-1.7c-0.9,2.5-1.6,5.3-2.1,8.3L56.5,62.1z"/>
			<path class="st19" d="M61.3,84c0.1-4,0.4-7.5,0.9-10.4l-5.6-11.5l-10.3,6.6c-0.5,2.8-0.9,5.9-1.2,9.2L61.3,84z"/>
			<path class="st9" d="M44.7,98.7h7.9l-8.1-12.2c0,1.2,0,2.4,0,3.7C44.5,93.2,44.6,96,44.7,98.7z"/>
			<path class="st20" d="M52.7,98.7h-7.9c0.2,3.5,0.5,6.7,1,9.7L52.7,98.7z"/>
			<path class="st6" d="M65,115c-0.9-1.5-1.6-3.4-2.1-5.7L52.7,98.7l13.8,27.8L65,115z"/>
			<path class="st12" d="M52.7,98.7l8.5-6.4c0-0.6,0-1.2,0-1.8c0-2.3,0-4.5,0.1-6.6L45,77.9c-0.2,2.7-0.4,5.6-0.4,8.6L52.7,98.7z"/>
			<path class="st8" d="M61.1,92.3l-8.5,6.4l10.2,10.6C61.8,105,61.2,99.4,61.1,92.3z"/>
			<path class="st6" d="M58.9,133.7c2.8,2,5.9,3.4,9.4,4.2l-1.9-11.3L58.9,133.7z"/>
			<path class="st5" d="M58.8,133.6C58.8,133.7,58.9,133.7,58.8,133.6l7.6-7.1l-16.7-4.4C52.2,127.1,55.2,131,58.8,133.6z"/>
			<path class="st11" d="M49.8,122.2l16.7,4.4L52.7,98.7l-6.9,9.7c0.6,4,1.5,7.4,2.6,10.3C48.8,119.9,49.3,121.1,49.8,122.2z"/>
			<path class="st5" d="M73,121.7c-3.2-0.7-5.8-2.9-7.9-6.6c0-0.1-0.1-0.1-0.1-0.2l1.5,11.5L73,121.7z"/>
			<path class="st11" d="M75.3,122c-0.8,0-1.6-0.1-2.3-0.2l-6.5,4.8l1.9,11.3c0.3,0.1,0.6,0.1,0.9,0.2l6.3-16
				C75.4,122,75.3,122,75.3,122z"/>
			<path class="st4" d="M75.5,122l-6.3,16c1.9,0.4,4,0.5,6.2,0.5c4.3,0,8.2-0.7,11.6-2.1l-8.9-14.8C77.2,121.8,76.4,122,75.5,122z"
				/>
			<path class="st3" d="M84.2,116.6c-1.2,1.9-2.6,3.3-4.2,4.1l10.4,4.8L84.2,116.6z"/>
			<path class="st20" d="M80.1,120.7c-0.6,0.4-1.3,0.6-2,0.8l8.9,14.8c0.9-0.4,1.8-0.9,2.7-1.4l0.8-9.5L80.1,120.7z"/>
			<path class="st6" d="M90.5,125.6l-0.8,9.5c0.7-0.4,1.4-0.9,2.1-1.4c1.4-1.1,2.8-2.4,4-3.8L90.5,125.6z"/>
			<path class="st22" d="M95.7,129.8c1.8-2.2,3.4-4.8,4.8-7.9l-10.1,3.6L95.7,129.8z"/>
			<path class="st4" d="M100.5,121.9c0.5-1.1,1-2.3,1.5-3.5c0.7-1.8,1.2-3.7,1.7-5.9l-13.3,13.1L100.5,121.9z"/>
			<path class="st20" d="M88.3,104.4c-0.7,4.7-1.8,8.4-3.4,11.1c-0.2,0.4-0.4,0.7-0.6,1.1l6.2,9l13.3-13.1c0.4-1.9,0.8-4,1.1-6.2
				L88.3,104.4z"/>
			<path class="st11" d="M97.7,91.4l-8.5-3c0,0.4,0,0.8,0,1.2c0,3.1-0.1,5.9-0.3,8.6L97.7,91.4z"/>
			<path class="st6" d="M97.7,91.4l-8.8,6.7c-0.2,2.3-0.4,4.4-0.7,6.3l16.6,1.9c0.2-1.4,0.4-2.9,0.5-4.5L97.7,91.4z"/>
			<path class="st15" d="M90.6,58.3L84.1,62c0.4,0.6,0.9,1.3,1.3,2c2.5,4.5,3.8,12.6,3.9,24.3l8.5,3L90.6,58.3z"/>
			<path class="st13" d="M84.1,62l6.5-3.7l-11.1-0.4C81.2,58.7,82.7,60.1,84.1,62z"/>
			<path class="st8" d="M105.3,101.9c0.6-7.1,0.5-10.5,0.5-12.6c0-2.7-0.1-5.3-0.2-7.8l-7.9,9.9L105.3,101.9z"/>
			<path class="st9" d="M105.6,81.5c-0.1-2.9-0.4-5.6-0.7-8.2l-7.2,18L105.6,81.5z"/>
			<path class="st17" d="M97.7,91.4l7.2-18c-0.6-5-1.6-9.3-2.9-12.9c-0.5-1.3-1-2.5-1.5-3.6l-10,1.5L97.7,91.4z"/>
			<path class="st17" d="M82.6,40.9l8,17.4l-0.6-14.2C87.7,42.6,85.2,41.6,82.6,40.9z"/>
			<path class="st28" d="M91.4,45c-0.5-0.3-1-0.7-1.4-1l0.6,14.2l10-1.5C98.2,51.7,95.1,47.8,91.4,45z"/>
			<path class="st29" d="M72.6,57.3c0.9-0.2,1.7-0.3,2.7-0.3c1.5,0,2.9,0.3,4.2,0.9l11.1,0.4l-8-17.4c-1.3-0.3-2.6-0.6-4-0.7
				L72.6,57.3z"/>
			<path class="st26" d="M63.4,42.4l8.7,15.1c0.2,0,0.3-0.1,0.5-0.1l6-17.1c-1.2-0.1-2.4-0.2-3.7-0.2C70.7,40,66.9,40.8,63.4,42.4z"
				/>
			<path class="st18" d="M72.1,57.4l-8.7-15.1c-1.4,0.6-2.7,1.4-4,2.3l-2.9,17.4l12.9-3.4C70.3,58.1,71.2,57.7,72.1,57.4z"/>
		</g>
		<path class="st2" d="M24.5,169.7v-8.8l-6.5-13.5h4.4l4.3,9.3l4.2-9.3h4.1l-6.4,13.4v8.8H24.5z"/>
		<path class="st2" d="M51.4,169.7v-22.3h14.5v3.6H55.6v5.3h7.5v3.6h-7.5v6h10.7v3.8H51.4z"/>
		<path class="st2" d="M84.3,169.7l6.7-22.3h5.2l6.7,22.3h-4.2l-1.4-4.9h-7.7l-1.4,4.9H84.3z M90.7,161.3h5.7l-2.8-10L90.7,161.3z"
			/>
		<path class="st2" d="M120.9,169.7v-22.3h7.5c2.8,0,4.9,0.5,6.3,1.6c1.4,1.1,2.1,2.8,2.1,5c0,1.4-0.4,2.7-1.1,3.6
			c-0.7,1-1.7,1.6-3.1,2l4.9,10h-4.5l-4.3-9H125v9H120.9z M125,157.1h3.6c1.3,0,2.3-0.2,3-0.7c0.6-0.5,0.9-1.3,0.9-2.3
			c0-1.1-0.3-1.8-0.9-2.3c-0.6-0.5-1.6-0.7-3-0.7H125V157.1z"/>
		<path class="st2" d="M155,164.7l3.8-1.7c0.6,1.2,1.2,2.1,2,2.6c0.7,0.5,1.6,0.8,2.6,0.8c1.1,0,2-0.3,2.6-0.8c0.6-0.5,1-1.2,1-2.1
			c0-0.7-0.2-1.3-0.7-1.7c-0.5-0.5-1.3-0.9-2.6-1.4c-0.2-0.1-0.4-0.2-0.7-0.3c-2.2-0.8-3.7-1.5-4.6-2c-0.8-0.5-1.5-1.2-1.9-2.1
			c-0.4-0.8-0.7-1.8-0.7-2.8c0-1.8,0.7-3.3,2-4.4c1.3-1.1,3.1-1.7,5.3-1.7c1.9,0,3.5,0.4,4.7,1.2s2.2,2,2.8,3.6l-3.8,1.4
			c-0.5-1-1-1.7-1.7-2.2c-0.6-0.5-1.4-0.7-2.4-0.7c-0.9,0-1.6,0.2-2.1,0.6c-0.5,0.4-0.8,1-0.8,1.7c0,1.1,1.3,2.2,3.8,3.2
			c0.8,0.3,1.4,0.6,1.9,0.7c2.1,0.9,3.6,1.8,4.4,2.8c0.8,0.9,1.2,2.2,1.2,3.7c0,2.1-0.7,3.7-2,4.8c-1.3,1.2-3.2,1.8-5.5,1.8
			c-2,0-3.8-0.4-5.2-1.3C156.8,167.8,155.8,166.4,155,164.7z"/>
	</g>
	<rect x="218.3" y="40" class="st2" width="1" height="130"/>
</g>
<g id="Layer_3" class="st30">
	<g class="st31">
		<g>
			<defs>
				<rect id="SVGID_1_" x="70.8" y="70.1" width="208.5" height="121.8"/>
			</defs>
			<clipPath id="SVGID_2_">
				<use xlink:href="#SVGID_1_"  style="overflow:visible;"/>
			</clipPath>
			<g class="st32">
				<defs>
					<rect id="SVGID_3_" x="70.8" y="70" width="208.5" height="122"/>
				</defs>
				<clipPath id="SVGID_4_">
					<use xlink:href="#SVGID_3_"  style="overflow:visible;"/>
				</clipPath>
				<g style="clip-path:url(#SVGID_4_);">
					
						<image style="overflow:visible;" width="241" height="141" xlink:href="F9895E39D1AD68F2.jpg"  transform="matrix(0.8652 0 0 0.8652 70.7866 69.9523)">
					</image>
				</g>
			</g>
		</g>
		<g>
			<defs>
				<rect id="SVGID_5_" x="70.8" y="191.9" width="208.5" height="75.3"/>
			</defs>
			<clipPath id="SVGID_6_">
				<use xlink:href="#SVGID_5_"  style="overflow:visible;"/>
			</clipPath>
			<g class="st33">
				<defs>
					<rect id="SVGID_7_" x="70.8" y="191.9" width="208.5" height="75.3"/>
				</defs>
				<clipPath id="SVGID_8_">
					<use xlink:href="#SVGID_7_"  style="overflow:visible;"/>
				</clipPath>
				<g style="clip-path:url(#SVGID_8_);">
					
						<image style="overflow:visible;" width="241" height="87" xlink:href="F9895E39D1AD68F5.jpg"  transform="matrix(0.8652 0 0 0.8652 70.7866 191.9466)">
					</image>
				</g>
			</g>
		</g>
		<g>
			<defs>
				<rect id="SVGID_9_" x="412.7" y="120.2" width="468.4" height="117.2"/>
			</defs>
			<clipPath id="SVGID_10_">
				<use xlink:href="#SVGID_9_"  style="overflow:visible;"/>
			</clipPath>
			<path class="st34" d="M535.5,164.3c-1.3,8.4-6.9,13.5-15.4,13.5c-11.7,0-16.9-10.8-16.9-21.1c0-10.3,5.2-21.1,16.9-21.1
				c8.4,0,14,4.8,15.4,13.5l-7.8,1.1c-0.8-4.3-2.7-8.1-7.6-8.1c-7,0-8.5,9.4-8.5,14.6s1.4,14.6,8.5,14.6c4.9,0,6.8-3.8,7.6-8
				L535.5,164.3z"/>
			<rect x="539.8" y="136.3" class="st34" width="7.8" height="40.9"/>
			<path class="st34" d="M559.6,164.3c-0.3,3.6,1.9,7.8,5.9,7.8c2.8,0,4.3-2.3,4.9-4.7l7.2,1.3c-1.7,5.8-7.3,9.1-12.9,9.1
				c-8.6,0-12.9-7.6-12.9-15.3c0-7.8,4.3-15.3,12.9-15.3c7.4,0,13.1,3.5,12.9,17.2H559.6z M569.9,159.4c0-3.3-1.3-6.6-5-6.6
				c-3.5,0-4.9,3.4-5,6.6H569.9z"/>
			<polygon class="st34" points="596.3,177.2 588.1,177.2 578.9,147.7 587.1,147.7 592.2,168.8 592.3,168.8 597.4,147.7 
				605.1,147.7 			"/>
			<path class="st34" d="M614.3,164.3c-0.3,3.6,1.9,7.8,5.9,7.8c2.8,0,4.3-2.3,4.9-4.7l7.2,1.3c-1.7,5.8-7.3,9.1-12.9,9.1
				c-8.6,0-12.9-7.6-12.9-15.3c0-7.8,4.3-15.3,12.9-15.3c7.4,0,13.1,3.5,12.9,17.2H614.3z M624.7,159.4c0-3.3-1.3-6.6-5-6.6
				c-3.5,0-4.9,3.4-5,6.6H624.7z"/>
			<rect x="636.6" y="136.3" class="st34" width="7.8" height="40.9"/>
			<path class="st34" d="M666.1,174.5c-2.9,2.1-4.6,3.3-8.4,3.3c-5.1,0-9.3-3.5-9.3-8.7c0-8.3,10.9-10,17.2-10.7
				c0.5-4.1-0.8-5.6-3.7-5.6c-2.5,0-4.3,1.1-4.7,3.7l-7.5-1.2c1.7-6.3,5.9-8.3,12.1-8.3c7.9,0,11.6,3.8,11.6,9.3V171
				c0,2.1,0.1,4.2,1.1,6.1H667L666.1,174.5z M665.7,163.7c-3.2,0.6-9.6,0.9-9.6,5.2c0,1.7,0.8,3.2,2.7,3.2c3.2,0,5.4-1.9,6.9-3.8
				V163.7z"/>
			<path class="st34" d="M686.4,150.8c2.5-2,5.5-3.7,8.8-3.7c3.2,0,7.7,1.9,7.7,9.2v20.9h-7.8v-17.7c0-2.4,0.2-6.1-3.2-6.1
				c-2.3,0-4,1.6-5.5,3.2v20.6h-7.8v-29.4h7.8V150.8z"/>
			<path class="st34" d="M725.9,174.7c-2.4,2.1-4.2,3.1-7.5,3.1c-5.9,0-11.4-3.7-11.4-16.1c0-10.9,6.5-14.6,10.8-14.6
				c3.2,0,5,1.6,7.3,3.5v-14.3h7.8v40.9h-6.3L725.9,174.7z M719.9,153.3c-4.3,0-5.2,5.5-5.2,8.7c0,3.5,0.7,9.2,5.4,9.2
				c2.3,0,3.8-1.5,5-3.4v-11.3C723.7,154.8,722.1,153.3,719.9,153.3"/>
			<path class="st34" d="M785,164.3c-1.3,8.4-6.9,13.5-15.4,13.5c-11.7,0-16.9-10.8-16.9-21.1c0-10.3,5.2-21.1,16.9-21.1
				c8.4,0,14,4.8,15.4,13.5l-7.8,1.1c-0.8-4.3-2.7-8.1-7.6-8.1c-7,0-8.5,9.4-8.5,14.6s1.4,14.6,8.5,14.6c4.9,0,6.8-3.8,7.6-8
				L785,164.3z"/>
			<rect x="789.2" y="136.3" class="st34" width="7.8" height="40.9"/>
			<path class="st34" d="M809.8,143.4H802v-7.1h7.8V143.4z M809.8,177.2H802v-29.4h7.8V177.2z"/>
			<path class="st34" d="M822.5,150.8c2.5-2,5.5-3.7,8.8-3.7c3.2,0,7.7,1.9,7.7,9.2v20.9h-7.8v-17.7c0-2.4,0.2-6.1-3.2-6.1
				c-2.3,0-4,1.6-5.5,3.2v20.6h-7.8v-29.4h7.8V150.8z"/>
			<path class="st34" d="M851.7,143.4h-7.8v-7.1h7.8V143.4z M851.7,177.2h-7.8v-29.4h7.8V177.2z"/>
			<path class="st34" d="M881.1,167.7c-1.3,6.1-5.7,10.1-12.3,10.1c-8.6,0-12.9-7.6-12.9-15.3c0-7.8,4.3-15.3,12.9-15.3
				c6.6,0,11,4,12.3,10.1l-7,1.2c-0.6-2.8-1.3-5.6-5.3-5.6c-4.2,0-4.9,5.9-4.9,9.6c0,3.7,0.7,9.6,4.9,9.6c3.9,0,4.7-2.8,5.3-5.7
				L881.1,167.7z"/>
			<path class="st35" d="M469.8,142.1v12.6h11.2c3,0,5.4-2.4,5.4-5.4v-23.8c0-3-2.4-5.4-5.4-5.4h-23.8c-3,0-5.4,2.4-5.4,5.4v11.2
				h12.6C467.3,136.7,469.8,139.1,469.8,142.1 M429.3,142.1v12.6h-11.2c-3,0-5.4-2.4-5.4-5.4v-23.8c0-3,2.4-5.4,5.4-5.4h23.8
				c3,0,5.4,2.4,5.4,5.4v11.2h-12.6C431.7,136.7,429.3,139.1,429.3,142.1"/>
			<path class="st36" d="M429.3,171.8v-12.6h-11.2c-3,0-5.4,2.4-5.4,5.4v23.8c0,3,2.4,5.4,5.4,5.4h23.8c3,0,5.4-2.4,5.4-5.4v-11.2
				h-12.6C431.7,177.2,429.3,174.8,429.3,171.8 M469.8,171.8v-12.6h11.2c3,0,5.4,2.4,5.4,5.4v23.8c0,3-2.4,5.4-5.4,5.4h-23.8
				c-3,0-5.4-2.4-5.4-5.4v-11.2h12.6C467.3,177.2,469.8,174.8,469.8,171.8"/>
			<polygon class="st34" points="512.9,223.8 524,223.8 524,228.4 507.5,228.4 507.5,201.5 512.9,201.5 			"/>
			<path class="st34" d="M526.2,218.7c0-5.1,2.8-10.1,8.5-10.1c5.7,0,8.5,4.9,8.5,10.1c0,5.1-2.9,10.1-8.5,10.1
				C529,228.8,526.2,223.8,526.2,218.7 M537.9,218.7c0-2.4-0.5-6.3-3.2-6.3c-2.8,0-3.2,3.9-3.2,6.3s0.5,6.3,3.2,6.3
				C537.4,225,537.9,221.1,537.9,218.7"/>
			<path class="st34" d="M551.4,211c1.6-1.3,3.6-2.4,5.8-2.4c2.1,0,5.1,1.3,5.1,6v13.7h-5.1v-11.6c0-1.6,0.1-4-2.1-4
				c-1.5,0-2.7,1.1-3.6,2.1v13.5h-5.1V209h5.1V211z"/>
			<path class="st34" d="M577.8,226.7c-1.6,1.4-2.8,2-4.9,2c-3.9,0-7.5-2.4-7.5-10.6c0-7.1,4.3-9.6,7.1-9.6c2.1,0,3.3,1,4.8,2.3
				v-9.4h5.1v26.9h-4.1L577.8,226.7z M573.8,212.7c-2.8,0-3.4,3.6-3.4,5.7c0,2.3,0.4,6,3.5,6c1.5,0,2.5-1,3.3-2.2v-7.5
				C576.3,213.7,575.3,212.7,573.8,212.7"/>
			<path class="st34" d="M585.5,218.7c0-5.1,2.8-10.1,8.5-10.1c5.7,0,8.5,4.9,8.5,10.1c0,5.1-2.9,10.1-8.5,10.1
				C588.4,228.8,585.5,223.8,585.5,218.7 M597.3,218.7c0-2.4-0.5-6.3-3.2-6.3c-2.8,0-3.2,3.9-3.2,6.3s0.5,6.3,3.2,6.3
				C596.8,225,597.3,221.1,597.3,218.7"/>
			<path class="st34" d="M610.8,211c1.6-1.3,3.6-2.4,5.8-2.4c2.1,0,5.1,1.3,5.1,6v13.7h-5.1v-11.6c0-1.6,0.1-4-2.1-4
				c-1.5,0-2.7,1.1-3.6,2.1v13.5h-5.1V209h5.1V211z"/>
		</g>
		<g>
			<defs>
				<rect id="SVGID_11_" x="70.8" y="70.1" width="810.3" height="197.1"/>
			</defs>
			<clipPath id="SVGID_12_">
				<use xlink:href="#SVGID_11_"  style="overflow:visible;"/>
			</clipPath>
			<line class="st37" x1="346" y1="70.1" x2="346" y2="267.2"/>
		</g>
	</g>
</g>
</svg>
